<svg width="186" height="153" viewBox="0 0 186 153" fill="none" xmlns="http://www.w3.org/2000/svg">
<g clip-path="url(#clip0_2_15)">
<path d="M19.1328 116.625L19.6021 33.7334H10.2173V139.205C23.1138 135.884 36.0557 133.771 49.0884 133.681C61.1221 133.605 73.1558 135.281 85.2197 139.356C77.727 133.303 69.3716 128.851 60.4561 125.953C49.2246 122.3 37.085 121.093 24.6426 122.149C21.8271 122.376 19.375 120.293 19.1328 117.501C19.1025 117.199 19.1025 116.912 19.1328 116.625ZM156.847 29.4016C156.816 29.1602 156.786 28.9036 156.786 28.6319C156.786 28.3753 156.801 28.1187 156.847 27.8621V11.0785C145.04 9.96158 132.87 11.2596 122.244 15.2744C112.314 19.0326 103.747 25.2057 98.1768 34.0504V129.651C106.835 123.885 115.69 119.146 124.787 115.916C135.156 112.233 145.812 110.482 156.847 111.358V29.4016ZM167.064 23.5455H180.899C183.714 23.5455 186 25.8246 186 28.6319V145.846C186 148.653 183.714 150.932 180.899 150.932C180.324 150.932 179.764 150.842 179.249 150.661C165.021 146.601 150.883 143.899 136.881 143.808C123.228 143.718 109.59 146.118 95.8911 152.14C95.0435 152.698 94.0293 153 92.9849 152.985C91.9556 153 90.9414 152.698 90.0786 152.14C76.395 146.102 62.7417 143.718 49.0884 143.808C35.0869 143.899 20.9644 146.601 6.7207 150.661C6.20605 150.842 5.646 150.932 5.0708 150.932C2.28564 150.947 0 148.668 0 145.861V28.6319C0 25.8246 2.28564 23.5455 5.10107 23.5455H19.6475L19.7383 6.55051C19.7534 4.10541 21.479 2.08292 23.7949 1.59994C37.2212 -1.19231 53.5386 -0.498023 67.8428 4.96572C77.7271 8.73903 86.7031 14.7612 93.2573 23.4549C99.8721 15.3499 108.712 9.52388 118.657 5.76566C132.25 0.618875 147.931 -0.618768 162.689 1.53956C165.232 1.9018 167.049 4.09032 167.049 6.56561V23.5455H167.064ZM103.126 138.586C114.403 135.054 125.665 133.605 136.927 133.666C149.959 133.741 162.901 135.869 175.798 139.19V33.7334H167.064V117.078C167.064 119.886 164.778 122.165 161.963 122.165C161.554 122.165 161.161 122.119 160.782 122.029C149.611 120.278 138.789 121.727 128.223 125.485C119.716 128.519 111.361 133.047 103.126 138.586ZM87.9746 128.67V33.8994C82.6313 24.4964 73.9883 18.2025 64.2251 14.4745C53.1602 10.2484 40.7329 9.29748 29.895 10.837L29.3198 111.675C41.1416 111.252 52.7061 112.746 63.5894 116.293C72.2476 119.101 80.4517 123.221 87.9746 128.67Z" fill="white"/>
</g>
<defs>
<clipPath id="clip0_2_15">
<rect width="186" height="153" fill="white"/>
</clipPath>
</defs>
</svg>
